<svg width="45" height="57" viewBox="0 0 45 57" fill="none" xmlns="http://www.w3.org/2000/svg">
<path d="M35.9984 19.2328L37.0489 17.2707L32.189 16.0919L35.9984 19.2328Z" fill="black"/>
<path d="M40.9907 20.1486L44.9311 21.5885L44.0117 26.1672L44.669 28.9146L43.4871 28.2598L35.7354 28.5211L41.648 26.6896L43.092 23.2895L40.9907 20.1486Z" fill="black"/>
<path d="M16.1909 41.1547L4.09131 45.2797L20.4703 30.6716L22.8781 40.1005L37.0912 56.2328L16.1909 41.1547Z" fill="black"/>
<path d="M40.2739 33.7649L43.0932 34.279L43.4864 31.5318L41.3851 33.1001L31.6628 27.8687L27.4583 30.7464L25.357 28.5214L29.9547 20.1488L23.6489 17.4016L28.4082 9.95905L39.8081 15.5701L32.0563 3.14095L31.5317 6.67349L24.3062 0L22.2029 4.84196L13.0071 3.00848L17.7362 7.06509L3.15403 14.5237L13.1806 12.7023L0.788375 23.6813L8.40936 21.5868L0 33.6244L6.17478 28.9149L2.23431 42.3905L21.1524 25.3826L26.8412 38.8679L38.6262 53.2491L37.9689 45.2682L42.1735 47.7543L37.8379 40.1651L37.5757 33.2328L40.2739 33.7449V33.7649Z" fill="black"/>
</svg>
